<svg width="6" height="6" viewBox="0 0 6 6" fill="none" xmlns="http://www.w3.org/2000/svg">
<path d="M2.915 5.951C2.39433 5.951 1.91033 5.819 1.463 5.555C1.01567 5.28367 0.66 4.92067 0.396 4.466C0.132 4.01133 -2.6077e-08 3.51633 -2.6077e-08 2.981C-2.6077e-08 2.44567 0.132 1.95067 0.396 1.496C0.66 1.034 1.01567 0.671 1.463 0.407001C1.91033 0.135667 2.39433 5.96046e-07 2.915 5.96046e-07C3.443 5.96046e-07 3.93067 0.135667 4.378 0.407001C4.82533 0.671 5.17733 1.034 5.434 1.496C5.698 1.95067 5.83 2.44567 5.83 2.981C5.83 3.51633 5.698 4.01133 5.434 4.466C5.17733 4.92067 4.82533 5.28367 4.378 5.555C3.93067 5.819 3.443 5.951 2.915 5.951ZM2.915 5.181C3.30367 5.181 3.663 5.082 3.993 4.884C4.323 4.686 4.58333 4.422 4.774 4.092C4.96467 3.75467 5.06 3.38433 5.06 2.981C5.06 2.57767 4.96467 2.20733 4.774 1.87C4.58333 1.53267 4.323 1.265 3.993 1.067C3.663 0.869001 3.30367 0.770001 2.915 0.770001C2.52633 0.770001 2.167 0.869001 1.837 1.067C1.51433 1.265 1.254 1.53267 1.056 1.87C0.865333 2.20733 0.77 2.57767 0.77 2.981C0.77 3.38433 0.865333 3.75467 1.056 4.092C1.254 4.422 1.51433 4.686 1.837 4.884C2.167 5.082 2.52633 5.181 2.915 5.181ZM2.904 4.411C2.64733 4.411 2.409 4.34867 2.189 4.224C1.969 4.092 1.793 3.91967 1.661 3.707C1.53633 3.487 1.474 3.25233 1.474 3.003C1.474 2.541 1.61333 2.17433 1.892 1.903C2.17067 1.62433 2.541 1.485 3.003 1.485C3.18633 1.485 3.35867 1.518 3.52 1.584C3.68133 1.65 3.82067 1.73067 3.938 1.826C4.06267 1.92867 4.125 2.05333 4.125 2.2C4.125 2.332 4.081 2.43467 3.993 2.508C3.905 2.574 3.79133 2.607 3.652 2.607C3.59333 2.607 3.53833 2.596 3.487 2.574C3.43567 2.54467 3.38433 2.51167 3.333 2.475C3.21567 2.40167 3.10567 2.365 3.003 2.365C2.783 2.365 2.629 2.42733 2.541 2.552C2.453 2.66933 2.409 2.80133 2.409 2.948C2.409 3.09467 2.45667 3.22667 2.552 3.344C2.65467 3.454 2.79033 3.509 2.959 3.509C3.12767 3.509 3.28533 3.43567 3.432 3.289C3.49067 3.23033 3.54567 3.18633 3.597 3.157C3.65567 3.12033 3.72533 3.102 3.806 3.102C3.938 3.102 4.048 3.146 4.136 3.234C4.23133 3.31467 4.279 3.421 4.279 3.553C4.279 3.67033 4.24967 3.76567 4.191 3.839C4.059 4.02967 3.89033 4.17267 3.685 4.268C3.47967 4.36333 3.21933 4.411 2.904 4.411Z" fill="#935DCA"/>
</svg>
