<svg width="25" height="26" viewBox="0 0 25 26" fill="none" xmlns="http://www.w3.org/2000/svg">
<path d="M1.02307 22.4038V20.3577H23.5308V22.4038H1.02307ZM4.0923 19.3346C3.52961 19.3346 3.04791 19.1343 2.64721 18.7336C2.2465 18.3329 2.04615 17.8512 2.04615 17.2885V6.03462C2.04615 5.47193 2.2465 4.99023 2.64721 4.58952C3.04791 4.18882 3.52961 3.98846 4.0923 3.98846H20.4615C21.0242 3.98846 21.5059 4.18882 21.9066 4.58952C22.3073 4.99023 22.5077 5.47193 22.5077 6.03462V17.2885C22.5077 17.8512 22.3073 18.3329 21.9066 18.7336C21.5059 19.1343 21.0242 19.3346 20.4615 19.3346H4.0923ZM4.0923 17.2885H20.4615V6.03462H4.0923V17.2885Z" fill="#6B32A5"/>
</svg>
