<svg width="66" height="13" viewBox="0 0 66 13" fill="none" xmlns="http://www.w3.org/2000/svg">
<path d="M5.19824 7.51562L6.87305 1.89062H8.50391L6.02832 9H4.9541L5.19824 7.51562ZM3.65527 1.89062L5.3252 7.51562L5.5791 9H4.49512L2.03418 1.89062H3.65527ZM10.7256 1.89062V9H9.26562V1.89062H10.7256ZM15.7988 7.13965C15.7988 7.0127 15.7793 6.89876 15.7402 6.79785C15.7044 6.69368 15.6361 6.59928 15.5352 6.51465C15.4342 6.42676 15.2926 6.34049 15.1104 6.25586C14.9281 6.17122 14.6921 6.08333 14.4023 5.99219C14.0801 5.88802 13.7741 5.77083 13.4844 5.64062C13.1979 5.51042 12.944 5.35905 12.7227 5.18652C12.5046 5.01074 12.332 4.80729 12.2051 4.57617C12.0814 4.34505 12.0195 4.0765 12.0195 3.77051C12.0195 3.47428 12.0846 3.20573 12.2148 2.96484C12.3451 2.7207 12.5273 2.51237 12.7617 2.33984C12.9961 2.16406 13.2728 2.02897 13.5918 1.93457C13.9141 1.84017 14.2673 1.79297 14.6514 1.79297C15.1755 1.79297 15.6328 1.88737 16.0234 2.07617C16.4141 2.26497 16.7168 2.52376 16.9316 2.85254C17.1497 3.18132 17.2588 3.55729 17.2588 3.98047H15.8037C15.8037 3.77214 15.7598 3.58984 15.6719 3.43359C15.5872 3.27409 15.457 3.14876 15.2812 3.05762C15.1087 2.96647 14.8906 2.9209 14.627 2.9209C14.373 2.9209 14.1615 2.95996 13.9922 3.03809C13.8229 3.11296 13.696 3.21549 13.6113 3.3457C13.5267 3.47266 13.4844 3.61589 13.4844 3.77539C13.4844 3.89583 13.5137 4.00488 13.5723 4.10254C13.6341 4.2002 13.7253 4.29134 13.8457 4.37598C13.9661 4.46061 14.1143 4.54036 14.29 4.61523C14.4658 4.6901 14.6693 4.76335 14.9004 4.83496C15.2878 4.95215 15.6279 5.08398 15.9209 5.23047C16.2171 5.37695 16.4645 5.54134 16.6631 5.72363C16.8617 5.90592 17.0114 6.11263 17.1123 6.34375C17.2132 6.57487 17.2637 6.83691 17.2637 7.12988C17.2637 7.43913 17.2035 7.71582 17.083 7.95996C16.9626 8.2041 16.7884 8.41081 16.5605 8.58008C16.3327 8.74935 16.0609 8.87793 15.7451 8.96582C15.4294 9.05371 15.0762 9.09766 14.6855 9.09766C14.334 9.09766 13.9873 9.05208 13.6455 8.96094C13.3037 8.86654 12.9928 8.72493 12.7129 8.53613C12.4362 8.34733 12.2148 8.10645 12.0488 7.81348C11.8828 7.52051 11.7998 7.17383 11.7998 6.77344H13.2695C13.2695 6.99479 13.3037 7.18197 13.3721 7.33496C13.4404 7.48796 13.5365 7.61165 13.6602 7.70605C13.7871 7.80046 13.9368 7.86882 14.1094 7.91113C14.2852 7.95345 14.4772 7.97461 14.6855 7.97461C14.9395 7.97461 15.1478 7.9388 15.3105 7.86719C15.4766 7.79557 15.5986 7.69629 15.6768 7.56934C15.7581 7.44238 15.7988 7.29915 15.7988 7.13965ZM19.8174 1.89062V9H18.3574V1.89062H19.8174ZM24.2217 1.89062V9H22.7617V1.89062H24.2217ZM26.4092 1.89062V3.03809H20.6084V1.89062H26.4092ZM29.6074 3.10645L27.6738 9H26.1162L28.7578 1.89062H29.749L29.6074 3.10645ZM31.2139 9L29.2754 3.10645L29.1191 1.89062H30.1201L32.7764 9H31.2139ZM31.126 6.35352V7.50098H27.3711V6.35352H31.126ZM33.4355 1.89062H36.0869C36.6305 1.89062 37.0977 1.97201 37.4883 2.13477C37.8822 2.29753 38.1849 2.53841 38.3965 2.85742C38.6081 3.17643 38.7139 3.56868 38.7139 4.03418C38.7139 4.41504 38.6488 4.74219 38.5186 5.01562C38.3916 5.28581 38.2109 5.51204 37.9766 5.69434C37.7454 5.87337 37.4736 6.0166 37.1611 6.12402L36.6973 6.36816H34.3926L34.3828 5.22559H36.0967C36.3538 5.22559 36.5671 5.18001 36.7363 5.08887C36.9056 4.99772 37.0326 4.87077 37.1172 4.70801C37.2051 4.54525 37.249 4.35645 37.249 4.1416C37.249 3.91374 37.2067 3.7168 37.1221 3.55078C37.0374 3.38477 36.9089 3.25781 36.7363 3.16992C36.5638 3.08203 36.3473 3.03809 36.0869 3.03809H34.9004V9H33.4355V1.89062ZM37.4102 9L35.7891 5.83105L37.3369 5.82129L38.9775 8.93164V9H37.4102ZM46.0332 7.13965C46.0332 7.0127 46.0137 6.89876 45.9746 6.79785C45.9388 6.69368 45.8704 6.59928 45.7695 6.51465C45.6686 6.42676 45.527 6.34049 45.3447 6.25586C45.1624 6.17122 44.9264 6.08333 44.6367 5.99219C44.3145 5.88802 44.0085 5.77083 43.7188 5.64062C43.4323 5.51042 43.1784 5.35905 42.957 5.18652C42.7389 5.01074 42.5664 4.80729 42.4395 4.57617C42.3158 4.34505 42.2539 4.0765 42.2539 3.77051C42.2539 3.47428 42.319 3.20573 42.4492 2.96484C42.5794 2.7207 42.7617 2.51237 42.9961 2.33984C43.2305 2.16406 43.5072 2.02897 43.8262 1.93457C44.1484 1.84017 44.5016 1.79297 44.8857 1.79297C45.4098 1.79297 45.8672 1.88737 46.2578 2.07617C46.6484 2.26497 46.9512 2.52376 47.166 2.85254C47.3841 3.18132 47.4932 3.55729 47.4932 3.98047H46.0381C46.0381 3.77214 45.9941 3.58984 45.9062 3.43359C45.8216 3.27409 45.6914 3.14876 45.5156 3.05762C45.3431 2.96647 45.125 2.9209 44.8613 2.9209C44.6074 2.9209 44.3958 2.95996 44.2266 3.03809C44.0573 3.11296 43.9303 3.21549 43.8457 3.3457C43.7611 3.47266 43.7188 3.61589 43.7188 3.77539C43.7188 3.89583 43.748 4.00488 43.8066 4.10254C43.8685 4.2002 43.9596 4.29134 44.0801 4.37598C44.2005 4.46061 44.3486 4.54036 44.5244 4.61523C44.7002 4.6901 44.9036 4.76335 45.1348 4.83496C45.5221 4.95215 45.8623 5.08398 46.1553 5.23047C46.4515 5.37695 46.6989 5.54134 46.8975 5.72363C47.096 5.90592 47.2458 6.11263 47.3467 6.34375C47.4476 6.57487 47.498 6.83691 47.498 7.12988C47.498 7.43913 47.4378 7.71582 47.3174 7.95996C47.1969 8.2041 47.0228 8.41081 46.7949 8.58008C46.5671 8.74935 46.2952 8.87793 45.9795 8.96582C45.6637 9.05371 45.3105 9.09766 44.9199 9.09766C44.5684 9.09766 44.2217 9.05208 43.8799 8.96094C43.5381 8.86654 43.2272 8.72493 42.9473 8.53613C42.6706 8.34733 42.4492 8.10645 42.2832 7.81348C42.1172 7.52051 42.0342 7.17383 42.0342 6.77344H43.5039C43.5039 6.99479 43.5381 7.18197 43.6064 7.33496C43.6748 7.48796 43.7708 7.61165 43.8945 7.70605C44.0215 7.80046 44.1712 7.86882 44.3438 7.91113C44.5195 7.95345 44.7116 7.97461 44.9199 7.97461C45.1738 7.97461 45.3822 7.9388 45.5449 7.86719C45.7109 7.79557 45.833 7.69629 45.9111 7.56934C45.9925 7.44238 46.0332 7.29915 46.0332 7.13965ZM50.0518 1.89062V9H48.5918V1.89062H50.0518ZM54.4561 1.89062V9H52.9961V1.89062H54.4561ZM56.6436 1.89062V3.03809H50.8428V1.89062H56.6436ZM62.249 7.85742V9H58.4648V7.85742H62.249ZM58.9434 1.89062V9H57.4785V1.89062H58.9434ZM61.7559 4.78613V5.89941H58.4648V4.78613H61.7559ZM62.2441 1.89062V3.03809H58.4648V1.89062H62.2441Z" fill="#935DCA"/>
<rect y="12" width="66" height="1" fill="#8251B3"/>
</svg>
