<svg width="20" height="20" viewBox="0 0 20 20" fill="none" xmlns="http://www.w3.org/2000/svg">
<circle cx="10" cy="10" r="10" fill="#532185"/>
<path fill-rule="evenodd" clip-rule="evenodd" d="M12.2266 5C11.9673 4.99991 11.7111 5.05868 11.4761 5.17216C11.2411 5.28565 11.033 5.45108 10.8666 5.65679C10.7002 5.8625 10.5794 6.10348 10.5128 6.36272C10.4462 6.62197 10.4355 6.89317 10.4813 7.15719L7.90143 9.02555L7.86434 9.05544C7.60261 8.84383 7.28865 8.71255 6.95827 8.67657C6.62789 8.64058 6.29438 8.70135 5.99577 8.85193C5.69716 9.00251 5.44548 9.23685 5.26942 9.52822C5.09335 9.81959 5 10.1563 5 10.4999C5 10.8435 5.09335 11.1801 5.26942 11.4715C5.44548 11.7629 5.69716 11.9972 5.99577 12.1478C6.29438 12.2984 6.62789 12.3592 6.95827 12.3232C7.28865 12.2872 7.60261 12.1559 7.86434 11.9443L7.90143 11.9748L10.4813 13.8431C10.4631 13.9484 10.454 14.0563 10.454 14.1669C10.4541 14.6016 10.6034 15.022 10.8755 15.3533C11.1475 15.6846 11.5244 15.9052 11.9391 15.9757C12.3538 16.0462 12.7792 15.9621 13.1394 15.7382C13.4997 15.5144 13.7713 15.1655 13.9059 14.7538C14.0405 14.342 14.0293 13.8942 13.8742 13.4902C13.7192 13.0862 13.4304 12.7524 13.0594 12.5482C12.6885 12.344 12.2594 12.2827 11.8488 12.3754C11.4383 12.468 11.0729 12.7085 10.8178 13.0539L8.37485 11.2843C8.48394 11.0462 8.54503 10.7805 8.54503 10.4996C8.54503 10.2187 8.48394 9.95239 8.37485 9.7149L10.8184 7.94582C11.0013 8.19374 11.2424 8.38927 11.5188 8.51394C11.7952 8.6386 12.0978 8.68827 12.398 8.65825C12.6981 8.62824 12.9859 8.51952 13.2341 8.34239C13.4823 8.16526 13.6827 7.92556 13.8164 7.64599C13.95 7.36641 14.0125 7.05619 13.9979 6.74467C13.9833 6.43315 13.8921 6.13063 13.733 5.86572C13.5738 5.60082 13.352 5.38228 13.0884 5.2308C12.8248 5.07931 12.5282 4.99987 12.2266 5ZM11.2721 6.83338C11.2721 6.57156 11.3727 6.32046 11.5517 6.13532C11.7307 5.95019 11.9735 5.84618 12.2266 5.84618C12.4798 5.84618 12.7226 5.95019 12.9016 6.13532C13.0806 6.32046 13.1811 6.57156 13.1811 6.83338C13.1811 7.09521 13.0806 7.34631 12.9016 7.53144C12.7226 7.71658 12.4798 7.82059 12.2266 7.82059C11.9735 7.82059 11.7307 7.71658 11.5517 7.53144C11.3727 7.34631 11.2721 7.09521 11.2721 6.83338ZM6.7724 9.51294C6.51925 9.51294 6.27647 9.61695 6.09747 9.80209C5.91847 9.98723 5.81791 10.2383 5.81791 10.5001C5.81791 10.762 5.91847 11.0131 6.09747 11.1982C6.27647 11.3833 6.51925 11.4874 6.7724 11.4874C7.02555 11.4874 7.26832 11.3833 7.44733 11.1982C7.62633 11.0131 7.72689 10.762 7.72689 10.5001C7.72689 10.2383 7.62633 9.98723 7.44733 9.80209C7.26832 9.61695 7.02555 9.51294 6.7724 9.51294ZM12.2266 13.1797C11.9735 13.1797 11.7307 13.2837 11.5517 13.4689C11.3727 13.654 11.2721 13.9051 11.2721 14.1669C11.2721 14.4287 11.3727 14.6798 11.5517 14.865C11.7307 15.0501 11.9735 15.1541 12.2266 15.1541C12.4798 15.1541 12.7226 15.0501 12.9016 14.865C13.0806 14.6798 13.1811 14.4287 13.1811 14.1669C13.1811 13.9051 13.0806 13.654 12.9016 13.4689C12.7226 13.2837 12.4798 13.1797 12.2266 13.1797Z" fill="#D6ADFF"/>
</svg>
