<svg width="29" height="30" viewBox="0 0 29 30" fill="none" xmlns="http://www.w3.org/2000/svg">
<g clip-path="url(#clip0_2_610)" filter="url(#filter0_d_2_610)">
<g filter="url(#filter1_d_2_610)">
<path fill-rule="evenodd" clip-rule="evenodd" d="M21.9067 4.76575L24.7318 7.66465L17.3144 15.2758L24.7318 22.887L21.9067 25.7859L14.4893 18.1747L7.07188 25.7859L4.24677 22.887L11.6632 15.2758L4.24677 7.66465L7.07188 4.76575L14.4893 12.3759L21.9067 4.76575Z" fill="#F9F3FF"/>
<path d="M24.0329 7.66418L16.9567 14.9269L16.6159 15.2755L16.9567 15.6251L24.0339 22.8859L21.9059 25.0685L14.8474 17.8253L14.489 17.4581L14.1315 17.8253L7.07098 25.0685L4.94403 22.8859L12.0212 15.6251L12.361 15.2755L12.0212 14.9269L4.94501 7.66418L7.07196 5.48157L14.1315 12.7247L14.489 13.0919L14.8474 12.7247L21.9059 5.48157L24.0329 7.66418Z" stroke="#BC97E0"/>
</g>
</g>
<defs>
<filter id="filter0_d_2_610" x="0" y="0" width="28.9786" height="30.5516" filterUnits="userSpaceOnUse" color-interpolation-filters="sRGB">
<feFlood flood-opacity="0" result="BackgroundImageFix"/>
<feColorMatrix in="SourceAlpha" type="matrix" values="0 0 0 0 0 0 0 0 0 0 0 0 0 0 0 0 0 0 127 0" result="hardAlpha"/>
<feOffset/>
<feGaussianBlur stdDeviation="2"/>
<feComposite in2="hardAlpha" operator="out"/>
<feColorMatrix type="matrix" values="0 0 0 0 0 0 0 0 0 0 0 0 0 0 0 0 0 0 0.25 0"/>
<feBlend mode="normal" in2="BackgroundImageFix" result="effect1_dropShadow_2_610"/>
<feBlend mode="normal" in="SourceGraphic" in2="effect1_dropShadow_2_610" result="shape"/>
</filter>
<filter id="filter1_d_2_610" x="1.64677" y="4.76575" width="25.6851" height="27.6201" filterUnits="userSpaceOnUse" color-interpolation-filters="sRGB">
<feFlood flood-opacity="0" result="BackgroundImageFix"/>
<feColorMatrix in="SourceAlpha" type="matrix" values="0 0 0 0 0 0 0 0 0 0 0 0 0 0 0 0 0 0 127 0" result="hardAlpha"/>
<feOffset dy="4"/>
<feGaussianBlur stdDeviation="1.3"/>
<feComposite in2="hardAlpha" operator="out"/>
<feColorMatrix type="matrix" values="0 0 0 0 0.578068 0 0 0 0 0.363843 0 0 0 0 0.792293 0 0 0 1 0"/>
<feBlend mode="normal" in2="BackgroundImageFix" result="effect1_dropShadow_2_610"/>
<feBlend mode="normal" in="SourceGraphic" in2="effect1_dropShadow_2_610" result="shape"/>
</filter>
<clipPath id="clip0_2_610">
<rect width="20.9786" height="22.5516" fill="white" transform="translate(4 4)"/>
</clipPath>
</defs>
</svg>
